PathFileType	4	(X/Y/Z)	C:\Users\chris\Documents\GitHub\baseballds\vids\pitch5_Sports2D\pitch5_Sports2D_px_person04.trc
DataRate	CameraRate	NumFrames	NumMarkers	Units	OrigDataRate	OrigDataStartFrame	OrigNumFrames
30	30	13	22	m	30	130	149
Frame#	Time	Hip			RHip			RKnee			RAnkle			RBigToe			RSmallToe			RHeel			LHip			LKnee			LAnkle			LBigToe			LSmallToe			LHeel			Neck			Head			Nose			RShoulder			RElbow			RWrist			LShoulder			LElbow			LWrist		
		X1	Y1	Z1	X2	Y2	Z2	X3	Y3	Z3	X4	Y4	Z4	X5	Y5	Z5	X6	Y6	Z6	X7	Y7	Z7	X8	Y8	Z8	X9	Y9	Z9	X10	Y10	Z10	X11	Y11	Z11	X12	Y12	Z12	X13	Y13	Z13	X14	Y14	Z14	X15	Y15	Z15	X16	Y16	Z16	X17	Y17	Z17	X18	Y18	Z18	X19	Y19	Z19	X20	Y20	Z20	X21	Y21	Z21	X22	Y22	Z22
130	4.333333333333333	842.7796858013111	532.4992731372414	0.0	827.290718239771	532.6759672862341	0.0	837.2277282071931	605.8635182524681	0.0	823.7807309654403	680.3809425950437	0.0	851.840112630031	701.4476639824413	0.0	841.8248115224571	703.3039377257398	0.0	816.3142201192082	692.2604962858418	0.0	856.4171269109796	533.089872663332	0.0	845.1215370062403	606.5997152926581	0.0	830.6361238572558	676.0388350017053	0.0	855.3789576196123	697.7956471218365	0.0	855.2344214933079	692.8491034978108	0.0	821.9315915006661	687.4561081333578	0.0	845.8845841160371	415.0266087092698	0.0	855.2996281358689	361.88476615544675	0.0	868.5153688039809	392.8452911586408	0.0	815.652352746181	434.1560968588651	0.0	804.2399262217937	488.1988745966771	0.0	815.3581950195505	536.91903341952	0.0	868.2253370278845	438.4944825134061	0.0	868.2743590994619	486.4286592466411	0.0	876.1258673742814	506.9651815033906	0.0
131	4.366666666666666	843.9216686099185	532.404344855677	0.0	829.1253608499878	532.6464002262323	0.0	839.3091359566188	606.293167716449	0.0	833.492125225742	681.3315567485421	0.0	863.0173263269809	701.1157380197776	0.0	853.7719177199003	703.6383586175028	0.0	826.451422528604	693.9431130629843	0.0	857.117343114528	532.8806634192547	0.0	844.5757444193302	606.1818596332403	0.0	830.333983733703	675.89863125277	0.0	856.4708117372403	695.7955148534868	0.0	856.5539868247148	691.0581223806405	0.0	819.6604172728279	687.706120196623	0.0	847.2683531115736	415.2058003408222	0.0	857.3894584892056	361.60158154407696	0.0	870.0818042565322	392.62939280263265	0.0	817.3882177662255	433.88010976453893	0.0	805.3870977960926	487.93993623485073	0.0	814.4675521090926	537.1150836795649	0.0	868.9668596667835	438.06353895398456	0.0	868.3575596481597	485.79598066558356	0.0	876.2347384074687	509.2222553788722	0.0
132	4.4	844.9040025019779	533.013712309617	0.0	830.4351783536686	533.1569395280931	0.0	841.0951008189118	606.5757777894136	0.0	843.7181537874135	681.5280319288487	0.0	874.1663476440358	699.2095308952394	0.0	865.128577876174	702.1145402919321	0.0	837.6470614846947	694.5562410322408	0.0	858.0095998910365	533.2116450792173	0.0	843.9933419807829	606.3212686074166	0.0	829.2427059632471	676.4265467568574	0.0	856.0394760720238	694.7953002983727	0.0	857.0167847198711	690.9640756888193	0.0	819.0707584169156	688.5426074767038	0.0	848.8226343840308	415.4399928512982	0.0	859.127315147811	361.3184717299686	0.0	871.7839532462076	392.5569834692725	0.0	819.2657478782137	433.96149417311346	0.0	806.5901118558165	488.05368974411755	0.0	813.8573630343772	537.8541884138328	0.0	869.3785277477759	437.8929558827373	0.0	868.0278335376489	485.5759132727177	0.0	877.4007363513215	510.77521339229156	0.0
133	4.433333333333334	846.0670011566934	533.5920937450778	0.0	831.6280235012289	533.7525872580374	0.0	843.1079137882474	606.8540768785685	0.0	853.5327263248926	681.4461389364797	0.0	884.7667323111659	696.1929031270208	0.0	875.915199760894	699.3552260898308	0.0	848.9988495897576	694.6356648738076	0.0	858.9937294995168	533.727401929883	0.0	843.246878319145	606.6464442420449	0.0	827.6868486937083	676.9762013077172	0.0	854.0311919836516	695.0700933371586	0.0	855.7933362088926	692.4619997015898	0.0	819.2267908904006	689.6853167132385	0.0	850.5663956917522	415.2924131404708	0.0	860.7280518623468	361.2949499468875	0.0	873.7374218659464	392.4841011023574	0.0	821.0780720199232	434.33702068187506	0.0	807.635030047817	488.69737069542145	0.0	813.5699888917356	538.8530594457754	0.0	869.8636098033189	437.7753413160064	0.0	868.1669220826623	485.5309378531281	0.0	878.4907065209181	511.6533842703151	0.0
134	4.466666666666667	847.3949193553179	533.6601077571314	0.0	833.2196743592713	533.9297322100917	0.0	845.59142295231	607.4929778035086	0.0	860.9251235529047	681.6385340106125	0.0	892.4502661708506	693.8200282992057	0.0	884.2645212202777	697.3075727849642	0.0	857.9031797508078	694.8675855372724	0.0	860.03663947518	533.8848960717153	0.0	842.2237799216679	606.8812500548935	0.0	826.5432352094085	677.1391702525946	0.0	851.7273332015236	695.598286913524	0.0	853.6419124103872	694.057665466946	0.0	819.1868396062371	690.5586556000798	0.0	852.3460009528899	414.9637173541763	0.0	862.6657164815174	361.45222523171856	0.0	875.7634695396617	392.42990150585945	0.0	822.609061396585	434.8116387604987	0.0	808.6301181376448	489.6040578053337	0.0	813.5788079650438	539.7402523429615	0.0	870.7055116028628	437.71975648958716	0.0	869.3506407210997	485.51131131340253	0.0	879.980140924697	511.0544481795192	0.0
135	4.5	848.7972265731626	533.3769278716968	0.0	835.4792386679526	533.7499427253567	0.0	848.6211787533865	608.3314418358052	0.0	865.026140309058	682.6325180950653	0.0	896.7989128357649	693.417763530413	0.0	889.6109630837501	697.3313739781565	0.0	862.8621568812204	695.932353630431	0.0	861.0469664852341	533.6890632669898	0.0	841.1942025201895	607.0608747656017	0.0	826.1642097290339	677.1691629827773	0.0	850.6076121294982	695.5790771261013	0.0	852.1775128230722	694.6380575750544	0.0	819.1469991887521	690.8523564410314	0.0	854.0134790259946	414.904098925993	0.0	864.9480469179259	361.6777991097814	0.0	877.5879952466203	392.4290481712711	0.0	824.0604299996169	435.29265416332476	0.0	809.957896752952	490.2269957885162	0.0	814.1512592405483	540.4520192639286	0.0	871.6887839867695	437.8553286678058	0.0	871.092020631989	485.387388053678	0.0	882.6561224868947	508.41950631384225	0.0
136	4.533333333333333	850.3046735711155	533.2318555776282	0.0	838.2564663097351	533.5402785887803	0.0	851.9142143798535	608.8828329906224	0.0	866.6806172524344	683.9529316977944	0.0	899.4154028170565	694.7230763098213	0.0	892.9369421238707	698.8606084831255	0.0	864.5003134994204	697.2807422966686	0.0	861.6898355952461	533.5603721558904	0.0	840.7346079228066	607.3074727919018	0.0	826.2740656643202	677.2499648286955	0.0	850.9534321801293	695.2357565790444	0.0	852.0304987499667	694.4275824876829	0.0	819.2619102731135	690.545547088874	0.0	855.5242298746997	415.09434804660987	0.0	867.2163514481842	361.8164257609248	0.0	879.1632557249252	392.5021881836934	0.0	825.9122018069584	435.54332258461585	0.0	811.6741488658755	490.26357454336784	0.0	815.5161753219584	541.279907124813	0.0	872.3343957435279	437.77792235742487	0.0	872.0535738796159	485.0417620810621	0.0	885.4608961982966	505.56722000196004	0.0
137	4.566666666666666	852.027467180117	533.3179102523815	0.0	841.1512411942022	533.2143261197357	0.0	854.7895973295805	608.9524880038348	0.0	867.3111466158854	684.6749634459547	0.0	901.2736007231424	696.5228578043927	0.0	894.8924207103324	700.5191173006082	0.0	864.615147553634	697.746008240368	0.0	862.0582168360677	533.5489529863257	0.0	841.2771000592295	607.4235901842636	0.0	826.5029032242376	677.0267083538857	0.0	851.8536118529422	694.8930533077512	0.0	852.534015923546	693.9421700772307	0.0	819.1632300884914	689.7478533942473	0.0	856.9601178940673	415.13823799674526	0.0	869.197114367803	361.5404576395648	0.0	880.6740518387347	392.6168316474569	0.0	828.3267755106879	435.37349204733806	0.0	813.6683855020191	489.95983623424377	0.0	817.557756298492	542.251653005869	0.0	872.5671182487185	436.9485470293722	0.0	871.8714080942929	484.49041023928316	0.0	886.9375504042098	505.3620876517549	0.0
138	4.6	853.9955766747537	533.2788593627749	0.0	843.8839442183621	532.6850611957408	0.0	856.7174501004703	608.7975778145939	0.0	867.7186659309557	684.9057512073283	0.0	902.1224791333893	697.9669100492963	0.0	895.550037678991	701.7310846286668	0.0	864.7409708192188	697.2634500893918	0.0	862.8369794305443	533.4525585953766	0.0	842.6198237964345	607.1240138491178	0.0	826.5869808485945	676.2944080141503	0.0	852.3663339094629	694.4908906805276	0.0	852.9203084762869	693.2279947519196	0.0	818.8183896930465	688.7238714352968	0.0	858.4640290760399	414.84222516368106	0.0	870.6842259662162	360.7359151185002	0.0	882.3147657515174	392.35530417449274	0.0	830.9359078340323	435.0911437181107	0.0	816.0329523307959	489.84668076414994	0.0	820.0288468973165	543.030212194197	0.0	873.046999055812	435.79616208159155	0.0	872.096102427073	483.9451761244023	0.0	887.4046709486032	507.4873327279136	0.0
139	4.633333333333333	856.0582085269274	533.1009867356645	0.0	846.5229311164098	532.3397698226528	0.0	857.8446399217189	608.809404054616	0.0	867.9945010255881	685.2098422790792	0.0	901.9008897516144	698.7922907835366	0.0	895.2706037457764	702.4376176477199	0.0	865.2967936681077	696.6118404430142	0.0	864.4469267869022	533.2984690081989	0.0	844.3002749785271	606.5732313556392	0.0	826.4760941944019	675.3419673682349	0.0	852.3886350603698	693.9946503925148	0.0	853.0668793898567	692.2797985243274	0.0	818.5974331978503	687.6511007694669	0.0	860.0483363481005	414.2741029337585	0.0	871.5001269578601	359.69136722233395	0.0	884.0137376088256	391.31748006630346	0.0	833.3126959812897	435.0135592104376	0.0	818.812630691346	490.1344103428935	0.0	822.8149322871933	543.5210466989638	0.0	874.3949115128456	435.06248700113076	0.0	873.8655139729456	483.4927728285228	0.0	887.9540959873862	509.2612447892146	0.0
140	4.666666666666667	858.1180868529319	533.180054323445	0.0	849.3609975204436	532.4151574969273	0.0	858.7422114465807	608.9185768220132	0.0	868.2719470651853	685.2734759712713	0.0	901.4001962042196	698.7896622290743	0.0	894.8084199275988	702.2960740359661	0.0	865.9167017168263	696.031615261408	0.0	866.6021414893336	533.156459742626	0.0	846.3849025201018	606.2009120446073	0.0	826.4570508534771	674.4885468523187	0.0	852.5319697498542	693.7067872037599	0.0	853.3100511661444	691.4450385416438	0.0	818.5336082529607	686.49196301805	0.0	861.6497415043802	413.49162715965275	0.0	871.8192500564663	358.6682879770649	0.0	885.5557471481285	389.8328794176222	0.0	835.5193440684131	434.84416803679034	0.0	821.866490478694	490.40617734647594	0.0	826.0046367025574	543.7922548121052	0.0	876.344650348311	434.4126622064562	0.0	876.0820557168314	482.8163079375319	0.0	888.4915442720662	511.11007074370815	0.0
141	4.7	860.229889803881	533.4885932088995	0.0	852.306169597174	532.6036896666353	0.0	859.7185068298738	608.7057917907392	0.0	868.774728046734	684.5923886964325	0.0	901.3742861258177	698.1816171530828	0.0	894.5803225638888	701.4773801662334	0.0	866.1935486435971	695.3456269167099	0.0	868.7823536666507	532.9396637969943	0.0	849.137615115604	606.1075878588069	0.0	826.791898623891	673.7612709177886	0.0	853.0450375584774	693.8671083699918	0.0	853.7186377205529	691.1060237083996	0.0	818.4402211099166	685.2725397491845	0.0	863.2931796633169	412.6647750344205	0.0	872.2594628146695	357.7018357564226	0.0	886.9738729376245	388.53159846030405	0.0	837.8802695438793	434.2778133870492	0.0	825.1364727332893	490.2692734653694	0.0	829.7067306137783	543.8554229833373	0.0	878.1829394503256	433.24601836402576	0.0	877.1355870984572	481.8029838311736	0.0	888.6059743295754	514.5769375235667	0.0
142	4.733333333333333	862.4855527042055	533.4145974868151	0.0	854.812455673074	532.6063089968835	0.0	860.7029457942797	608.2232156718626	0.0	869.2975411032733	683.6364617291072	0.0	901.7945361114652	697.8896689465242	0.0	894.4165669903371	701.0332097055857	0.0	866.0809157958756	694.7185739170418	0.0	871.007814311879	532.5803126476947	0.0	852.1927133782917	605.9617813633993	0.0	827.2538483222804	672.9221303631011	0.0	853.3182288377313	694.0139712204713	0.0	853.8729298585877	690.9995417769367	0.0	818.4016360680539	684.0878961600823	0.0	865.0246629696674	412.0698408229824	0.0	873.336719172027	356.7735485178042	0.0	888.5332427820339	387.40760728765525	0.0	840.4201048889465	433.6918159863622	0.0	828.6675374490867	489.9501437581204	0.0	833.987602181126	543.9902806950987	0.0	879.6780307917239	431.9844332876995	0.0	877.0509735207568	480.88757056043937	0.0	889.309360364299	515.9858411795119	0.0
